<svg xmlns="http://www.w3.org/2000/svg" viewBox="0 0 512 512" width="512" height="512">
  <rect width="512" height="512" rx="128" fill="#1a237e"/>
  <!-- Outer ear shape -->
  <path d="M160 256 C160 160 220 96 288 96 C356 96 400 160 400 256 C400 340 360 400 300 416 L300 360 C340 350 360 300 360 256 C360 190 330 140 288 140 C246 140 210 190 210 256 C210 290 220 320 240 340 L240 400 C180 370 160 320 160 256 Z" fill="#e0f7fa"/>
  <!-- Inner ear detail -->
  <path d="M240 256 C240 210 260 170 288 170 C316 170 330 210 330 256 C330 300 310 330 290 340 L290 380 C340 360 370 310 370 256 C370 190 340 130 288 130 C236 130 200 190 200 256 C200 310 220 350 250 370 L250 330 C230 310 240 290 240 256 Z" fill="#1a237e" opacity="0.3"/>
  <!-- Recording dot -->
  <circle cx="360" cy="136" r="28" fill="#ff3d00"/>
  <circle cx="360" cy="136" r="16" fill="#ffffff"/>
</svg>