<svg xmlns="http://www.w3.org/2000/svg" viewBox="0 0 512 512" width="512" height="512">
  <rect width="512" height="512" rx="128" fill="#1a237e"/>
  
  <!-- Brain outline -->
  <path d="M256 96 C340 96 400 160 400 240 C400 320 340 360 280 380 L280 340 C330 320 360 280 360 240 C360 180 320 140 256 140 C192 140 152 180 152 240 C152 280 182 320 232 340 L232 380 C172 360 112 320 112 240 C112 160 172 96 256 96 Z" fill="#e0f7fa"/>
  
  <!-- Brain fold lines -->
  <path d="M256 140 L256 220" stroke="#1a237e" stroke-width="6" stroke-linecap="round" opacity="0.4"/>
  <path d="M200 180 Q256 200 312 180" stroke="#1a237e" stroke-width="6" stroke-linecap="round" opacity="0.4"/>
  <path d="M180 260 Q256 280 332 260" stroke="#1a237e" stroke-width="6" stroke-linecap="round" opacity="0.4"/>
  
  <!-- Sound wave inside brain -->
  <path d="M216 260 L216 300" stroke="#ff3d00" stroke-width="10" stroke-linecap="round"/>
  <path d="M236 250 L236 310" stroke="#ff3d00" stroke-width="10" stroke-linecap="round"/>
  <path d="M256 240 L256 320" stroke="#ff3d00" stroke-width="10" stroke-linecap="round"/>
  <path d="M276 250 L276 310" stroke="#ff3d00" stroke-width="10" stroke-linecap="round"/>
  <path d="M296 260 L296 300" stroke="#ff3d00" stroke-width="10" stroke-linecap="round"/>
</svg>